<svg xmlns="http://www.w3.org/2000/svg" width="146" height="44" viewBox="0 0 146 44" fill="none"><path d="M139.75 43.6821H5.375C2.365 43.6821 0 41.3171 0 38.3071V6.05713C0 3.04713 2.365 0.682129 5.375 0.682129H139.75C142.76 0.682129 145.125 3.04713 145.125 6.05713V38.3071C145.125 41.3171 142.76 43.6821 139.75 43.6821Z" fill="white"></path><path d="M139.75 1.54213C142.223 1.54213 144.265 3.58463 144.265 6.05713V38.3071C144.265 40.7796 142.223 42.8221 139.75 42.8221H5.375C2.9025 42.8221 0.86 40.7796 0.86 38.3071V6.05713C0.86 3.58463 2.9025 1.54213 5.375 1.54213H139.75ZM139.75 0.682129H5.375C2.365 0.682129 0 3.15463 0 6.05713V38.3071C0 41.3171 2.365 43.6821 5.375 43.6821H139.75C142.76 43.6821 145.125 41.3171 145.125 38.3071V6.05713C145.125 3.15463 142.76 0.682129 139.75 0.682129Z" fill="white"></path><path d="M50.9551 11.6471C50.9551 12.5071 50.7401 13.2596 50.2026 13.7971C49.5576 14.4421 48.8051 14.7646 47.8376 14.7646C46.8701 14.7646 46.1176 14.4421 45.4726 13.7971C44.8276 13.1521 44.5051 12.3996 44.5051 11.4321C44.5051 10.4646 44.8276 9.71213 45.4726 9.06713C46.1176 8.42213 46.8701 8.09963 47.8376 8.09963C48.2676 8.09963 48.6976 8.20713 49.1276 8.42213C49.5576 8.63713 49.8801 8.85213 50.0951 9.17463L49.5576 9.71213C49.1276 9.17463 48.5901 8.95963 47.8376 8.95963C47.1926 8.95963 46.5476 9.17463 46.1176 9.71213C45.5801 10.1421 45.3651 10.7871 45.3651 11.5396C45.3651 12.2921 45.5801 12.9371 46.1176 13.3671C46.6551 13.7971 47.1926 14.1196 47.8376 14.1196C48.5901 14.1196 49.1276 13.9046 49.6651 13.3671C49.9876 13.0446 50.2026 12.6146 50.2026 12.0771H47.8376V11.2171H50.9551V11.6471ZM55.9001 8.95963H52.9976V11.0021H55.6851V11.7546H52.9976V13.7971H55.9001V14.6571H52.1376V8.20713H55.9001V8.95963ZM59.4476 14.6571H58.5876V8.95963H56.7601V8.20713H61.2751V8.95963H59.4476V14.6571ZM64.3925 14.6571V8.20713H65.2525V14.6571H64.3925ZM68.9075 14.6571H68.0476V8.95963H66.22V8.20713H70.6275V8.95963H68.8V14.6571H68.9075ZM79.12 13.7971C78.4751 14.4421 77.7225 14.7646 76.7551 14.7646C75.7876 14.7646 75.035 14.4421 74.3901 13.7971C73.745 13.1521 73.4226 12.3996 73.4226 11.4321C73.4226 10.4646 73.745 9.71213 74.3901 9.06713C75.035 8.42213 75.7876 8.09963 76.7551 8.09963C77.7225 8.09963 78.4751 8.42213 79.12 9.06713C79.7651 9.71213 80.0875 10.4646 80.0875 11.4321C80.0875 12.3996 79.7651 13.1521 79.12 13.7971ZM75.0351 13.2596C75.4651 13.6896 76.1101 14.0121 76.7551 14.0121C77.4001 14.0121 78.045 13.7971 78.475 13.2596C78.905 12.8296 79.2275 12.1846 79.2275 11.4321C79.2275 10.6796 79.0125 10.0346 78.475 9.60463C78.045 9.17463 77.4001 8.85213 76.7551 8.85213C76.1101 8.85213 75.4651 9.06713 75.0351 9.60463C74.6051 10.0346 74.2826 10.6796 74.2826 11.4321C74.2826 12.1846 74.4976 12.8296 75.0351 13.2596ZM81.2701 14.6571V8.20713H82.2376L85.3551 13.2596V8.20713H86.215V14.6571H85.3551L82.0226 9.38963V14.6571H81.2701Z" fill="#2A2A28"></path><path d="M73.2075 24.1171C70.6275 24.1171 68.585 26.0521 68.585 28.7396C68.585 31.3196 70.6275 33.3621 73.2075 33.3621C75.7875 33.3621 77.83 31.4271 77.83 28.7396C77.83 25.9446 75.7875 24.1171 73.2075 24.1171ZM73.2075 31.4271C71.81 31.4271 70.6275 30.2446 70.6275 28.6321C70.6275 27.0196 71.81 25.8371 73.2075 25.8371C74.605 25.8371 75.7875 26.9121 75.7875 28.6321C75.7875 30.2446 74.605 31.4271 73.2075 31.4271ZM63.21 24.1171C60.63 24.1171 58.5875 26.0521 58.5875 28.7396C58.5875 31.3196 60.63 33.3621 63.21 33.3621C65.79 33.3621 67.8325 31.4271 67.8325 28.7396C67.8325 25.9446 65.79 24.1171 63.21 24.1171ZM63.21 31.4271C61.8125 31.4271 60.63 30.2446 60.63 28.6321C60.63 27.0196 61.8125 25.8371 63.21 25.8371C64.6075 25.8371 65.79 26.9121 65.79 28.6321C65.79 30.2446 64.6075 31.4271 63.21 31.4271ZM51.2775 25.5146V27.4496H55.9C55.7925 28.5246 55.3625 29.3846 54.825 29.9221C54.18 30.5671 53.105 31.3196 51.2775 31.3196C48.375 31.3196 46.225 29.0621 46.225 26.1596C46.225 23.2571 48.4825 20.9996 51.2775 20.9996C52.7825 20.9996 53.965 21.6446 54.825 22.3971L56.2225 20.9996C55.04 19.9246 53.535 19.0646 51.385 19.0646C47.515 19.0646 44.1825 22.2896 44.1825 26.1596C44.1825 30.0296 47.515 33.2546 51.385 33.2546C53.535 33.2546 55.04 32.6096 56.33 31.2121C57.62 29.9221 58.05 28.0946 58.05 26.6971C58.05 26.2671 58.05 25.8371 57.9425 25.5146H51.2775ZM100.082 27.0196C99.6525 25.9446 98.5775 24.1171 96.2125 24.1171C93.8475 24.1171 91.9125 25.9446 91.9125 28.7396C91.9125 31.3196 93.8475 33.3621 96.4275 33.3621C98.47 33.3621 99.76 32.0721 100.19 31.3196L98.685 30.2446C98.1475 30.9971 97.5025 31.5346 96.4275 31.5346C95.3525 31.5346 94.7075 31.1046 94.17 30.1371L100.297 27.5571L100.082 27.0196ZM93.8475 28.5246C93.8475 26.8046 95.245 25.8371 96.2125 25.8371C96.965 25.8371 97.7175 26.2671 97.9325 26.8046L93.8475 28.5246ZM88.795 32.9321H90.8375V19.4946H88.795V32.9321ZM85.57 25.0846C85.0325 24.5471 84.1725 24.0096 83.0975 24.0096C80.84 24.0096 78.69 26.0521 78.69 28.6321C78.69 31.2121 80.7325 33.1471 83.0975 33.1471C84.1725 33.1471 85.0325 32.6096 85.4625 32.0721H85.57V32.7171C85.57 34.4371 84.6025 35.4046 83.0975 35.4046C81.915 35.4046 81.055 34.5446 80.84 33.7921L79.12 34.5446C79.6575 35.7271 80.9475 37.2321 83.205 37.2321C85.57 37.2321 87.505 35.8346 87.505 32.5021V24.3321H85.57V25.0846ZM83.205 31.4271C81.8075 31.4271 80.625 30.2446 80.625 28.6321C80.625 27.0196 81.8075 25.8371 83.205 25.8371C84.6025 25.8371 85.6775 27.0196 85.6775 28.6321C85.6775 30.2446 84.6025 31.4271 83.205 31.4271ZM109.435 19.4946H104.597V32.9321H106.64V27.8796H109.435C111.692 27.8796 113.842 26.2671 113.842 23.6871C113.842 21.1071 111.692 19.4946 109.435 19.4946ZM109.542 25.9446H106.64V21.3221H109.542C111.048 21.3221 111.907 22.6121 111.907 23.5796C111.8 24.7621 110.94 25.9446 109.542 25.9446ZM121.905 24.0096C120.4 24.0096 118.895 24.6546 118.357 26.0521L120.185 26.8046C120.615 26.0521 121.26 25.8371 122.012 25.8371C123.087 25.8371 124.055 26.4821 124.162 27.5571V27.6646C123.84 27.4496 122.98 27.1271 122.12 27.1271C120.185 27.1271 118.25 28.2021 118.25 30.1371C118.25 31.9646 119.862 33.1471 121.582 33.1471C122.98 33.1471 123.625 32.5021 124.162 31.8571H124.27V32.9321H126.205V27.7721C125.99 25.4071 124.162 24.0096 121.905 24.0096ZM121.69 31.4271C121.045 31.4271 120.077 31.1046 120.077 30.2446C120.077 29.1696 121.26 28.8471 122.227 28.8471C123.087 28.8471 123.517 29.0621 124.055 29.2771C123.84 30.5671 122.765 31.4271 121.69 31.4271ZM132.977 24.3321L130.72 30.1371H130.612L128.247 24.3321H126.098L129.645 32.5021L127.602 37.0171H129.645L135.127 24.3321H132.977ZM114.917 32.9321H116.96V19.4946H114.917V32.9321Z" fill="#2A2A28"></path><path d="M11.18 8.74461C10.8575 9.06711 10.75 9.60461 10.75 10.2496V34.0071C10.75 34.6521 10.965 35.1896 11.2875 35.5121L11.395 35.6196L24.725 22.2896V22.0746L11.18 8.74461Z" fill="url(#paint0_linear_5429_48399)"></path><path d="M29.025 26.8046L24.6175 22.3971V22.0746L29.025 17.6671L29.1325 17.7746L34.4 20.7846C35.905 21.6446 35.905 23.0421 34.4 23.9021L29.025 26.8046Z" fill="url(#paint1_linear_5429_48399)"></path><path d="M29.1325 26.6971L24.6175 22.1821L11.18 35.6196C11.7175 36.1571 12.47 36.1571 13.4375 35.7271L29.1325 26.6971Z" fill="url(#paint2_linear_5429_48399)"></path><path d="M29.1325 17.6671L13.4375 8.74461C12.47 8.20711 11.7175 8.31461 11.18 8.85211L24.6175 22.1821L29.1325 17.6671Z" fill="url(#paint3_linear_5429_48399)"></path><path d="M29.025 26.5896L13.4375 35.4046C12.5775 35.9421 11.825 35.8346 11.2875 35.4046L11.18 35.5121L11.2875 35.6196C11.825 36.0496 12.5775 36.1571 13.4375 35.6196L29.025 26.5896Z" fill="white"></path><path d="M11.18 35.4046C10.8575 35.0821 10.75 34.5446 10.75 33.8996V34.0071C10.75 34.6521 10.965 35.1896 11.2875 35.5121L11.2875 35.4046H11.18ZM34.4 23.5796L29.025 26.5896L29.1325 26.6971L34.4 23.6871C35.1525 23.2571 35.475 22.7196 35.475 22.1821C35.475 22.7196 35.045 23.1496 34.4 23.5796Z" fill="white"></path><path d="M13.4375 8.85211L34.4 20.7846C35.045 21.2146 35.475 21.6446 35.475 22.1821C35.475 21.6446 35.1525 21.1071 34.4 20.6771L13.4375 8.74461C11.9325 7.88461 10.75 8.52961 10.75 10.2496V10.3571C10.75 8.74461 11.9325 7.99211 13.4375 8.85211Z" fill="white"></path><defs><linearGradient id="paint0_linear_5429_48399" x1="131.729" y1="2.76333" x2="123.039" y2="59.1579" gradientUnits="userSpaceOnUse"><stop stop-color="#00A0FF"></stop><stop offset="0.007" stop-color="#00A1FF"></stop><stop offset="0.26" stop-color="#00BEFF"></stop><stop offset="0.512" stop-color="#00D2FF"></stop><stop offset="0.76" stop-color="#00DFFF"></stop><stop offset="1" stop-color="#00E3FF"></stop></linearGradient><linearGradient id="paint1_linear_5429_48399" x1="156.335" y1="21.9342" x2="-189.635" y2="21.9342" gradientUnits="userSpaceOnUse"><stop stop-color="#FFE000"></stop><stop offset="0.409" stop-color="#FFBD00"></stop><stop offset="0.775" stop-color="#FFA500"></stop><stop offset="1" stop-color="#FF9C00"></stop></linearGradient><linearGradient id="paint2_linear_5429_48399" x1="125.372" y1="8.34226" x2="74.5616" y2="140.69" gradientUnits="userSpaceOnUse"><stop stop-color="#FF3A44"></stop><stop offset="1" stop-color="#C31162"></stop></linearGradient><linearGradient id="paint3_linear_5429_48399" x1="-26.9654" y1="-22.765" x2="-4.09037" y2="36.5416" gradientUnits="userSpaceOnUse"><stop stop-color="#32A071"></stop><stop offset="0.069" stop-color="#2DA771"></stop><stop offset="0.476" stop-color="#15CF74"></stop><stop offset="0.801" stop-color="#06E775"></stop><stop offset="1" stop-color="#00F076"></stop></linearGradient></defs></svg>